<?xml version="1.0" encoding="UTF-8" standalone="no"?>
<!DOCTYPE svg PUBLIC "-//W3C//DTD SVG 1.1//EN" "http://www.w3.org/Graphics/SVG/1.1/DTD/svg11.dtd">
<svg width="100%" height="100%" viewBox="0 0 2048 2048" version="1.1" xmlns="http://www.w3.org/2000/svg" xmlns:xlink="http://www.w3.org/1999/xlink" xml:space="preserve" xmlns:serif="http://www.serif.com/" style="fill-rule:evenodd;clip-rule:evenodd;stroke-linecap:round;stroke-linejoin:round;stroke-miterlimit:1.5;">
    <g id="E">
        <path d="M1394.82,1732.09L1495.61,1732.09L1495.61,1753.75L1422.72,1753.75L1422.72,1793.43L1492.47,1793.43L1492.47,1816.8L1422.72,1816.8L1422.72,1859.7L1500.49,1859.7L1500.49,1884.76L1394.82,1884.76L1394.82,1732.09Z" style="fill:white;stroke:rgb(255,0,12);stroke-width:0;"/>
    </g>
    <g id="R">
        <path d="M1213.14,1732.09C1239.13,1732.09 1260.43,1751.49 1260.43,1775.39C1260.43,1795.2 1243.95,1811.26 1224.18,1816.4L1224.16,1816.4L1266.37,1884.76L1232.84,1884.76L1198.08,1820.25L1176.77,1820.25L1176.77,1884.76L1150.63,1884.76L1150.63,1732.09L1213.14,1732.09ZM1211.42,1797.03C1221.93,1797.03 1232.18,1787.33 1232.18,1775.39C1232.18,1763.44 1221.93,1753.75 1211.42,1753.75L1176.77,1753.75L1176.77,1797.03L1211.42,1797.03Z" style="fill:white;stroke:rgb(255,0,12);stroke-width:0;"/>
    </g>
    <g id="O">
        <path d="M932.784,1726.54C978.575,1726.54 1015.75,1763.12 1015.75,1808.18C1015.75,1853.24 978.575,1889.83 932.784,1889.83C886.993,1889.83 849.816,1853.24 849.816,1808.18C849.816,1763.12 886.993,1726.54 932.784,1726.54ZM932.784,1751.76C903.224,1751.76 879.226,1777.04 879.226,1808.18C879.226,1839.33 903.224,1864.61 932.784,1864.61C962.343,1864.61 986.342,1839.33 986.342,1808.18C986.342,1777.04 962.343,1751.76 932.784,1751.76Z" style="fill:white;stroke:rgb(255,0,12);stroke-width:0;"/>
    </g>
    <g id="M">
        <path d="M549.804,1732.09L593.111,1732.54L633.064,1839.97L673.461,1732.09L715.634,1732.54L715.634,1885.69L687.667,1885.69L687.667,1762.01L641.055,1885.69L622.41,1885.69L576.402,1762.01L575.354,1885.69L549.804,1885.69L549.804,1732.09Z" style="fill:white;stroke:rgb(255,0,12);stroke-width:0;"/>
    </g>
    <g id="E1" serif:id="E">
        <path d="M547.406,1207.36L574.964,1207.36C577.318,1233.13 575.784,1269.42 606.546,1278.3L986.304,1278.3C991.921,1278.04 998.098,1277.4 1003.19,1274.67C1007.28,1272.48 1011.65,1267.3 1013.9,1263.4C1023.9,1246.09 1027.02,1226.79 1030.36,1207.36L1058.14,1207.36L1058.14,1641.43L928.638,1641.43L928.638,1615.15C950.65,1606.15 970.963,1593.73 989.09,1578.35C1006.13,1563.89 1022.52,1547.62 1024,1524.01L1025.99,1402L829.085,1402C828.715,1423.4 828.363,1444.81 829.085,1466.19C829.259,1471.33 830.383,1476.43 831.765,1481.39C842.451,1519.71 882.106,1533.57 917.117,1540.74L917.117,1567.47L703.284,1567.47L703.284,1540.74C732.522,1537.5 770.985,1526.73 786.076,1498.15C792.566,1485.87 793.599,1479.8 795.545,1466.19L795.545,1402L627.533,1402C622.506,1402.43 617.427,1402.86 612.55,1404.15C607.903,1405.38 600.482,1407.13 594.397,1413.02C588.313,1418.91 588.564,1419.2 584.505,1428.38C583.133,1431.49 581.542,1438.93 581.235,1445.9L581.235,1540.74C581.327,1559.01 588.75,1581.34 608.671,1596.12C624.818,1608.11 653.028,1625.05 663.217,1630.27C686.51,1642.2 705.71,1650.17 705.793,1649.99L705.793,1675.15L547.406,1666.71L547.406,1207.36Z" style="fill:white;stroke:rgb(255,0,12);stroke-width:0;"/>
    </g>
    <g id="C">
        <path d="M726.339,1241.09L725.784,1199.47L652.43,1188.58L642.884,1179.72C642.466,1173.8 642.046,1167.87 642.046,1161.93C642.046,1140.1 642.619,1123.64 656.294,1106.08C684.412,1069.97 734.772,1057.37 778.121,1054.48C827.216,1051.21 886.487,1057.8 924.978,1091.94C937.349,1102.91 950.389,1117.76 952.906,1134.94C954.211,1143.85 953.787,1152.93 953.787,1161.93C953.787,1167.87 953.346,1173.8 952.906,1179.72L943.587,1188.58L871.991,1199.47L871.991,1241.09L976.771,1241.09C979.009,1235.83 981.249,1230.57 983.263,1225.23C986.477,1216.7 989.844,1208.21 992.454,1199.47C996.01,1187.58 997.755,1174.35 998.364,1161.99C999.645,1135.97 999.546,1110.73 990.752,1085.98C983.804,1066.43 974.136,1047.24 960.593,1031.42C921.364,985.579 858.256,964.717 799.33,964.717C722.33,964.717 638.374,998.126 607.907,1074.5C594.568,1107.94 594.112,1148.99 601.29,1184.04C603.182,1193.27 605.052,1202.55 607.882,1211.54C611.05,1221.61 615.154,1231.36 619.246,1241.09L726.339,1241.09Z" style="fill:white;stroke:rgb(255,0,12);stroke-width:0;"/>
    </g>
    <g id="i">
        <path d="M909.09,853.032C935.84,853.032 957.558,874.75 957.558,901.5C957.558,928.251 935.84,949.969 909.09,949.969C882.34,949.969 860.622,928.251 860.622,901.5C860.622,874.75 882.34,853.032 909.09,853.032ZM549.804,813.66L612.592,813.944L612.592,856.561L764.024,856.561L764.024,813.944L829.085,813.944L829.085,945.772L612.592,945.772L612.592,987.252L549.804,987.252L549.804,813.66Z" style="fill:white;stroke:rgb(255,0,12);stroke-width:0;"/>
    </g>
    <g id="D">
        <path d="M1100.05,1184.34C1100.05,1184.34 1257.87,1183.66 1303.44,1184.34C1326.82,1184.69 1354.34,1186.64 1373.46,1188.46C1388.47,1189.89 1403.68,1191.12 1418.17,1195.28C1432.99,1199.52 1449.78,1205.66 1462.33,1213.91C1474.55,1221.93 1486.35,1232 1493.49,1244.74C1500.9,1257.97 1506.23,1281.85 1506.77,1307.1C1507.49,1340.39 1506.77,1385.61 1506.77,1385.61L1506.77,1532.64C1506.77,1532.64 1507.21,1543.48 1506.77,1553.62C1506.39,1562.54 1505.73,1587.59 1504.37,1596.41C1502.94,1605.74 1501.85,1613.21 1498.39,1621.86C1495.06,1630.2 1488.12,1640.06 1481.6,1646.24C1474.52,1652.97 1465.73,1658.67 1455.69,1663.11C1444.81,1667.91 1430.98,1671.71 1418.17,1674.13C1404.47,1676.72 1387.98,1677.88 1373.46,1678.63C1359.34,1679.36 1345.18,1678.63 1331.05,1678.63L1100.05,1678.63L1100.05,1184.34ZM1303.44,1269.8L1275.82,1269.8L1276.36,1593.46L1300.81,1593.46C1322.7,1593.57 1331.05,1574.92 1331.05,1553.17L1331.05,1296.87C1331.05,1283.78 1322.73,1270.16 1303.44,1269.8Z" style="fill:white;stroke:rgb(255,0,12);stroke-width:0;"/>
    </g>
    <g id="_-" serif:id="`">
        <path d="M1192.5,1013.1L1238.67,1013.45C1238.67,1013.45 1247.47,1052.75 1276.31,1069.92C1302.06,1085.25 1339.17,1086.61 1339.17,1086.61L1339.17,1013.45L1465.6,1013.45L1465.6,1144.14C1465.6,1144.14 1381.06,1144.64 1354.77,1144.14C1319.26,1143.46 1273.34,1134.51 1245.2,1110.83C1199.73,1072.57 1192.5,1013.1 1192.5,1013.1Z" style="fill:white;stroke:rgb(255,0,12);stroke-width:0;"/>
    </g>
    <g id="L">
        <path d="M1454.48,937.237C1454.44,937.202 1454.4,937.169 1454.37,937.136C1454.28,937.065 1454.2,936.998 1454.12,936.934C1454.11,936.924 1454.09,936.914 1454.08,936.904C1444.61,929.467 1430.53,928.34 1430.53,928.34C1430.53,928.34 1198.84,927.128 1096.3,927.401C1082.01,927.439 1072.33,934.797 1067.42,940.804C1062.51,946.811 1058.88,962.497 1057.82,970.615C1056.01,984.481 1054.78,1012.18 1059.06,1029.45C1063.49,1047.33 1072.8,1065.09 1084.39,1077.86C1095.99,1090.62 1113.3,1098.91 1128.64,1106.05C1143.76,1113.08 1176.46,1120.68 1176.46,1120.68L1176.46,1155.86L1011.86,1153.85L1012.81,752.37L1052.19,752.013C1052.19,752.013 1050.41,782.113 1060.05,796.808C1067.53,808.209 1088.88,810.403 1088.88,810.403L1419.07,811.226C1419.07,811.226 1449.11,814.184 1461.44,793.447C1468.37,781.807 1466.92,752.949 1466.92,752.949L1506.73,752.949L1506.77,988.271L1466.92,988.289C1466.92,988.289 1466.42,959.172 1463.47,951.247C1460.89,944.346 1457.04,939.427 1454.48,937.237Z" style="fill:white;stroke:rgb(255,0,12);stroke-width:0;"/>
    </g>
    <g id="A">
        <path d="M541.17,157.671L1509.43,285.232L1509.93,648.903L541.628,793.447L542.197,537.497L714.475,525.223L714.636,434.635L540.688,418.783L541.17,157.671ZM886.586,430.332L886.399,515.924L1291.37,477.897L886.586,430.332Z" style="fill:white;stroke:rgb(255,0,12);stroke-width:0;"/>
    </g>
</svg>
