<?xml version="1.0" encoding="UTF-8" standalone="no"?>
<!DOCTYPE svg PUBLIC "-//W3C//DTD SVG 1.1//EN" "http://www.w3.org/Graphics/SVG/1.1/DTD/svg11.dtd">
<svg width="100%" height="100%" viewBox="0 0 2417 639" version="1.1" xmlns="http://www.w3.org/2000/svg" xmlns:xlink="http://www.w3.org/1999/xlink" xml:space="preserve" xmlns:serif="http://www.serif.com/" style="fill-rule:evenodd;clip-rule:evenodd;stroke-linejoin:round;stroke-miterlimit:2;">
    <g transform="matrix(1,0,0,1,-558,-939)">
        <g transform="matrix(0.821649,0,0,0.803906,144.602,217.24)">
            <g>
                <path d="M1709.62,927.499L1714.43,942.617L1729.98,942.617C1744.58,942.617 1757.52,952.226 1762.03,966.419C1766.54,980.612 1761.6,996.16 1749.79,1004.93L1737.21,1014.27L1742.01,1029.39C1746.52,1043.59 1741.58,1059.13 1729.77,1067.9C1717.96,1076.68 1701.96,1076.68 1690.15,1067.9L1677.57,1058.56L1664.98,1067.9C1653.17,1076.68 1637.18,1076.68 1625.36,1067.9C1613.55,1059.13 1608.61,1043.59 1613.12,1029.39L1617.93,1014.27L1605.34,1004.93C1593.53,996.16 1588.59,980.612 1593.1,966.419C1597.61,952.226 1610.55,942.617 1625.15,942.617L1640.71,942.617L1645.51,927.499C1650.03,913.306 1662.97,903.697 1677.57,903.697C1692.17,903.697 1705.11,913.306 1709.62,927.499ZM832.07,1382.53C832.07,1408.1 825.981,1430 813.803,1448.22C801.624,1466.43 783.634,1480.24 759.831,1489.63C736.028,1499.02 707.077,1503.72 672.978,1503.72C640.429,1503.72 612.529,1498.63 589.28,1488.44C566.03,1478.26 548.87,1465.53 537.799,1450.25C526.728,1434.98 521.192,1419.65 521.192,1404.26C521.192,1394.07 524.735,1385.36 531.821,1378.12C538.906,1370.88 547.874,1367.26 558.723,1367.26C568.245,1367.26 575.552,1369.63 580.644,1374.38C585.737,1379.14 590.608,1385.81 595.258,1394.41C604.558,1410.93 615.684,1423.27 628.638,1431.41C641.591,1439.56 659.249,1443.63 681.613,1443.63C699.77,1443.63 714.661,1439.5 726.285,1431.24C737.91,1422.98 743.722,1413.54 743.722,1402.9C743.722,1386.6 737.689,1374.72 725.621,1367.26C713.553,1359.79 693.681,1352.66 666.003,1345.87C634.782,1337.95 609.374,1329.63 589.778,1320.92C570.182,1312.2 554.516,1300.72 542.781,1286.46C531.046,1272.2 525.178,1254.66 525.178,1233.85C525.178,1215.29 530.603,1197.75 541.452,1181.23C552.302,1164.71 568.3,1151.53 589.446,1141.68C610.592,1131.84 636.111,1126.91 666.003,1126.91C689.474,1126.91 710.564,1129.4 729.275,1134.38C747.985,1139.36 763.595,1146.04 776.105,1154.41C788.616,1162.78 798.137,1172.06 804.669,1182.25C811.201,1192.43 814.467,1202.39 814.467,1212.12C814.467,1222.76 810.98,1231.47 804.005,1238.26C797.03,1245.05 787.121,1248.44 774.279,1248.44C764.979,1248.44 757.063,1245.73 750.531,1240.3C743.999,1234.86 736.526,1226.72 728.112,1215.85C721.248,1206.8 713.166,1199.56 703.866,1194.13C694.566,1188.7 681.945,1185.98 666.003,1185.98C649.618,1185.98 636,1189.55 625.15,1196.67C614.301,1203.8 608.876,1212.68 608.876,1223.32C608.876,1233.05 612.861,1241.03 620.833,1247.25C628.804,1253.48 639.543,1258.63 653.05,1262.7C666.556,1266.77 685.156,1271.75 708.848,1277.64C736.969,1284.65 759.942,1293.03 777.766,1302.76C795.591,1312.49 809.098,1323.97 818.287,1337.21C827.476,1350.45 832.07,1365.56 832.07,1382.53ZM992.491,1178.85L992.491,1190.05C1009.54,1168.55 1027.26,1152.77 1045.63,1142.7C1064.01,1132.63 1084.83,1127.59 1108.07,1127.59C1135.97,1127.59 1161.66,1134.95 1185.13,1149.66C1208.6,1164.37 1227.14,1185.87 1240.76,1214.16C1254.38,1242.44 1261.19,1275.94 1261.19,1314.64C1261.19,1343.15 1257.26,1369.35 1249.4,1393.22C1241.54,1417.1 1230.74,1437.13 1217.01,1453.31C1203.29,1469.49 1187.07,1481.94 1168.36,1490.65C1149.65,1499.36 1129.55,1503.72 1108.07,1503.72C1082.17,1503.72 1060.41,1498.4 1042.81,1487.77C1025.21,1477.13 1008.43,1461.51 992.491,1440.92L992.491,1580.1C992.491,1620.84 977.988,1641.2 948.981,1641.2C931.932,1641.2 920.639,1635.94 915.104,1625.42C909.568,1614.89 906.8,1599.56 906.8,1579.42L906.8,1179.53C906.8,1161.88 910.565,1148.7 918.093,1139.98C925.621,1131.27 935.918,1126.91 948.981,1126.91C961.824,1126.91 972.286,1131.38 980.368,1140.32C988.45,1149.26 992.491,1162.11 992.491,1178.85ZM1170.18,1313.62C1170.29,1292.32 1164.54,1263.42 1159.22,1250.65C1151.92,1233.11 1141.79,1219.64 1128.83,1210.25C1115.88,1200.86 1101.54,1196.16 1085.82,1196.16C1060.8,1196.16 1039.71,1206.24 1022.55,1226.38C1005.39,1246.52 996.809,1276.16 996.809,1315.32C996.809,1352.2 1005.33,1380.89 1022.38,1401.37C1039.43,1421.85 1060.58,1432.09 1085.82,1432.09C1100.88,1432.09 1114.83,1427.62 1127.67,1418.68C1140.51,1409.75 1150.81,1396.34 1158.56,1378.46C1166.31,1360.58 1170.07,1334.92 1170.18,1313.62ZM1423.93,1369.97L1423.93,1447.37C1423.93,1466.15 1419.62,1480.24 1410.98,1489.63C1402.35,1499.02 1391.38,1503.72 1378.1,1503.72C1365.04,1503.72 1354.3,1498.97 1345.88,1489.46C1337.47,1479.96 1333.26,1465.93 1333.26,1447.37L1333.26,1189.38C1333.26,1147.73 1347.99,1126.91 1377.43,1126.91C1392.49,1126.91 1403.34,1131.78 1409.98,1141.51C1416.63,1151.24 1420.28,1165.61 1420.94,1184.62C1431.79,1165.61 1442.92,1151.24 1454.32,1141.51C1465.73,1131.78 1480.95,1126.91 1499.99,1126.91C1519.04,1126.91 1537.52,1131.78 1555.46,1141.51C1573.39,1151.24 1582.36,1164.14 1582.36,1180.21C1582.36,1191.53 1578.54,1200.86 1570.9,1208.21C1563.26,1215.57 1555.02,1219.25 1546.16,1219.25C1542.84,1219.25 1534.81,1217.15 1522.08,1212.97C1509.35,1208.78 1498.11,1206.69 1488.37,1206.69C1475.08,1206.69 1464.23,1210.25 1455.82,1217.38C1447.4,1224.51 1440.87,1235.09 1436.22,1249.12C1431.57,1263.15 1428.36,1279.84 1426.59,1299.19C1424.82,1318.54 1423.93,1342.13 1423.93,1369.97ZM1722.52,1179.53L1722.52,1447.37C1722.52,1465.93 1718.2,1479.96 1709.57,1489.46C1700.93,1498.97 1689.97,1503.72 1676.69,1503.72C1663.4,1503.72 1652.61,1498.85 1644.31,1489.12C1636,1479.39 1631.85,1465.47 1631.85,1447.37L1631.85,1182.25C1631.85,1163.91 1636,1150.11 1644.31,1140.83C1652.61,1131.55 1663.4,1126.91 1676.69,1126.91C1689.97,1126.91 1700.93,1131.55 1709.57,1140.83C1718.2,1150.11 1722.52,1163.01 1722.52,1179.53ZM1898.55,1178.17L1898.55,1189.38C1914.5,1167.88 1931.93,1152.09 1950.87,1142.02C1969.8,1131.95 1991.55,1126.91 2016.13,1126.91C2040.04,1126.91 2061.41,1132.23 2080.23,1142.87C2099.05,1153.51 2113.11,1168.55 2122.41,1188.02C2128.39,1199.33 2132.27,1211.55 2134.04,1224.68C2135.81,1237.81 2136.7,1254.55 2136.7,1274.92L2136.7,1447.37C2136.7,1465.93 2132.54,1479.96 2124.24,1489.46C2115.94,1498.97 2105.14,1503.72 2091.86,1503.72C2078.35,1503.72 2067.39,1498.85 2058.97,1489.12C2050.56,1479.39 2046.35,1465.47 2046.35,1447.37L2046.35,1292.91C2046.35,1262.36 2042.2,1238.99 2033.9,1222.81C2025.6,1206.63 2009.04,1198.54 1984.25,1198.54C1968.08,1198.54 1953.36,1203.46 1940.07,1213.31C1926.79,1223.15 1917.04,1236.67 1910.84,1253.87C1906.41,1267.68 1904.2,1293.48 1904.2,1331.27L1904.2,1447.37C1904.2,1466.15 1899.94,1480.24 1891.41,1489.63C1882.89,1499.02 1871.87,1503.72 1858.37,1503.72C1845.3,1503.72 1834.56,1498.85 1826.15,1489.12C1817.74,1479.39 1813.53,1465.47 1813.53,1447.37L1813.53,1179.53C1813.53,1161.88 1817.29,1148.7 1824.82,1139.98C1832.35,1131.27 1842.64,1126.91 1855.71,1126.91C1863.68,1126.91 1870.88,1128.84 1877.3,1132.68C1883.72,1136.53 1888.87,1142.3 1892.74,1150C1896.62,1157.69 1898.55,1167.08 1898.55,1178.17ZM2452.89,1461.29L2372.84,1326.86L2323.69,1374.38L2323.69,1448.05C2323.69,1465.93 2319.09,1479.67 2309.9,1489.29C2300.71,1498.91 2290.14,1503.72 2278.18,1503.72C2264.23,1503.72 2253.27,1498.97 2245.3,1489.46C2237.33,1479.96 2233.35,1465.93 2233.35,1447.37L2233.35,1052.23C2233.35,1031.64 2237.22,1015.97 2244.97,1005.22C2252.72,994.465 2263.79,989.09 2278.18,989.09C2292.13,989.09 2303.2,993.956 2311.4,1003.69C2319.59,1013.42 2323.69,1027.79 2323.69,1046.8L2323.69,1271.53L2425.65,1162.22C2438.27,1148.64 2447.91,1139.36 2454.55,1134.38C2461.19,1129.4 2469.27,1126.91 2478.79,1126.91C2490.09,1126.91 2499.5,1130.59 2507.03,1137.95C2514.55,1145.3 2518.32,1154.52 2518.32,1165.61C2518.32,1179.19 2506.03,1197.3 2481.45,1219.93L2433.29,1265.08L2526.29,1414.44C2533.15,1425.53 2538.08,1433.96 2541.07,1439.73C2544.06,1445.5 2545.55,1450.99 2545.55,1456.19C2545.55,1470.9 2541.62,1482.5 2533.76,1490.99C2525.9,1499.48 2515.55,1503.72 2502.71,1503.72C2491.64,1503.72 2483.11,1500.66 2477.13,1494.55C2471.15,1488.44 2463.07,1477.36 2452.89,1461.29ZM2600.02,1447.37L2600.02,1045.44C2600.02,1026.88 2604.06,1012.85 2612.14,1003.35C2620.23,993.843 2631.13,989.09 2644.86,989.09C2658.59,989.09 2669.66,993.786 2678.07,1003.18C2686.49,1012.57 2690.7,1026.66 2690.7,1045.44L2690.7,1447.37C2690.7,1466.15 2686.43,1480.24 2677.91,1489.63C2669.38,1499.02 2658.37,1503.72 2644.86,1503.72C2631.58,1503.72 2620.78,1498.85 2612.48,1489.12C2604.17,1479.39 2600.02,1465.47 2600.02,1447.37ZM3037.44,1338.06L2860.08,1338.06C2860.3,1359.11 2864.46,1377.66 2872.54,1393.73C2880.62,1409.8 2891.36,1421.91 2904.76,1430.06C2918.15,1438.2 2932.93,1442.28 2949.1,1442.28C2959.95,1442.28 2969.85,1440.98 2978.82,1438.37C2987.79,1435.77 2996.48,1431.7 3004.89,1426.15C3013.31,1420.61 3021.06,1414.67 3028.14,1408.33C3035.23,1401.99 3044.42,1393.39 3055.71,1382.53C3060.36,1378.46 3067,1376.42 3075.64,1376.42C3084.94,1376.42 3092.47,1379.02 3098.22,1384.23C3103.98,1389.43 3106.86,1396.79 3106.86,1406.29C3106.86,1414.67 3103.65,1424.45 3097.23,1435.66C3090.81,1446.86 3081.12,1457.61 3068.17,1467.91C3055.21,1478.2 3038.94,1486.75 3019.34,1493.54C2999.75,1500.33 2977.22,1503.72 2951.75,1503.72C2893.52,1503.72 2848.24,1486.75 2815.91,1452.8C2783.58,1418.85 2767.42,1372.8 2767.42,1314.64C2767.42,1287.25 2771.4,1261.85 2779.38,1238.43C2787.35,1215.01 2798.97,1194.92 2814.25,1178.17C2829.53,1161.43 2848.35,1148.58 2870.71,1139.64C2893.08,1130.7 2917.88,1126.23 2945.11,1126.23C2980.54,1126.23 3010.93,1133.87 3036.28,1149.15C3061.63,1164.42 3080.62,1184.17 3093.24,1208.38C3105.86,1232.6 3112.17,1257.27 3112.17,1282.39C3112.17,1305.7 3105.64,1320.81 3092.58,1327.71C3079.51,1334.61 3061.14,1338.06 3037.44,1338.06ZM2860.08,1285.44L3024.49,1285.44C3022.28,1253.76 3013.92,1230.05 2999.41,1214.33C2984.91,1198.6 2965.81,1190.73 2942.12,1190.73C2919.54,1190.73 2900.99,1198.71 2886.49,1214.66C2871.99,1230.62 2863.18,1254.21 2860.08,1285.44ZM3193.55,1135.06L3203.51,1135.06L3203.51,1079.39C3203.51,1064.45 3203.9,1052.74 3204.67,1044.25C3205.45,1035.77 3207.61,1028.47 3211.15,1022.36C3214.69,1016.02 3219.78,1010.87 3226.43,1006.91C3233.07,1002.95 3240.49,1000.97 3248.68,1000.97C3260.2,1000.97 3270.6,1005.38 3279.9,1014.21C3286.1,1020.1 3290.03,1027.28 3291.69,1035.77C3293.35,1044.25 3294.18,1056.31 3294.18,1071.92L3294.18,1135.06L3327.4,1135.06C3340.24,1135.06 3350.04,1138.17 3356.79,1144.4C3363.54,1150.62 3366.92,1158.6 3366.92,1168.33C3366.92,1180.78 3362.11,1189.49 3352.47,1194.47C3342.84,1199.45 3329.06,1201.93 3311.12,1201.93L3294.18,1201.93L3294.18,1372.35C3294.18,1386.83 3294.68,1397.98 3295.68,1405.78C3296.67,1413.59 3299.33,1419.93 3303.65,1424.79C3307.97,1429.66 3315,1432.09 3324.74,1432.09C3330.05,1432.09 3337.25,1431.13 3346.33,1429.21C3355.41,1427.28 3362.49,1426.32 3367.59,1426.32C3374.89,1426.32 3381.48,1429.32 3387.35,1435.32C3393.22,1441.32 3396.15,1448.73 3396.15,1457.55C3396.15,1472.49 3388.18,1483.92 3372.24,1491.84C3356.29,1499.76 3333.38,1503.72 3303.48,1503.72C3275.14,1503.72 3253.66,1498.85 3239.05,1489.12C3224.43,1479.39 3214.86,1465.93 3210.32,1448.73C3205.78,1431.53 3203.51,1408.56 3203.51,1379.82L3203.51,1201.93L3191.55,1201.93C3178.49,1201.93 3168.53,1198.77 3161.66,1192.43C3154.8,1186.09 3151.37,1178.06 3151.37,1168.33C3151.37,1158.6 3154.96,1150.62 3162.16,1144.4C3169.36,1138.17 3179.82,1135.06 3193.55,1135.06Z" style="fill:rgb(181,206,203);"/>
            </g>
        </g>
    </g>
</svg>
